<?xml version="1.0" encoding="UTF-8"?>
<svg id="Layer_2" data-name="Layer 2" xmlns="http://www.w3.org/2000/svg" viewBox="0 0 370.59 73.45">
  <defs>
    <style>
      .cls-1 {
        fill: #221f1f;
      }
    </style>
  </defs>
  <g id="Layer_1-2" data-name="Layer 1">
    <path class="cls-1" d="M9.36,10.22H0V0h32.26v10.22h-9.29v50.98h-13.61V10.22Z"/>
    <path class="cls-1" d="M52.35,35.28h-4.1v25.92h-13.9V0h13.9v25.42h4.1V0h13.9v61.21h-13.9v-25.92Z"/>
    <path class="cls-1" d="M68.69,0h13.9v61.21h-13.9V0Z"/>
    <path class="cls-1" d="M85.03,0h13.18c2.09,10.3,4.68,25.27,6.84,35.43h.29V0h12.82v61.21h-13.39c-2.3-10.51-4.25-20.52-6.41-30.96h-.29v30.96h-13.03V0Z"/>
    <path class="cls-1" d="M120.6,0h13.25l-.07,26.86h.43l6.55-26.86h13.03l-7.56,30.24,8.14,30.96h-13.83l-6.34-26.43h-.43l.07,26.43h-13.25V0Z"/>
    <path class="cls-1" d="M168.27,11.38h13.9v50.48h11.81v10.73h-25.71V11.38Z"/>
    <path class="cls-1" d="M205.06,11.45l17.86-.07,9.43,61.21h-13.54l-1.22-11.38h-6.84l-1.15,11.38h-13.54l9-61.13ZM216.65,52.13c-1.01-9.72-1.8-19.08-2.3-26.71h-.58c-.58,7.7-1.3,17.14-2.16,26.71h5.04Z"/>
    <path class="cls-1" d="M233.86,11.38h16.35c12.39,0,15.05,5.62,15.05,12.82v3.38c0,6.41-3.89,11.16-9.29,12.24v.43c5.9,1.3,10.87,5.83,10.87,13.75v5.26c0,9.5-5.9,13.32-16.78,13.32h-16.2V11.38ZM251.72,29.52v-7.56c0-4.03-2.02-4.54-4.25-4.54v19.01c3.31-.14,4.25-2.52,4.25-6.91ZM252.01,61.64v-11.09c0-4.32-1.22-6.26-4.54-6.34v21.75c2.38,0,4.54-.65,4.54-4.32Z"/>
    <path class="cls-1" d="M268.49,48.46v-13.83c0-16.27,7.49-24.12,17.5-24.12s17.35,7.92,17.35,24.12v13.83c0,15.84-7.34,24.99-17.57,24.99s-17.28-9.15-17.28-24.99ZM287.86,64.01V19.51c0-1.44-.86-2.23-2.02-2.23-1.01,0-1.87.79-1.87,2.23v44.5c0,1.66.72,2.52,1.87,2.52,1.3,0,2.02-.86,2.02-2.52Z"/>
    <path class="cls-1" d="M305.79,58.18V11.38h13.61v52.28c0,1.58.79,2.52,1.87,2.52,1.3,0,2.02-.94,2.02-2.52V11.38h13.61v46.8c0,10.94-4.75,15.27-15.7,15.27-8.86,0-15.41-4.32-15.41-15.27Z"/>
    <path class="cls-1" d="M339.48,11.38h17.57c8.14,0,13.54,2.88,13.54,12.53v6.12c0,6.98-2.74,11.31-8.35,11.67v.36c5.18.07,8.35,3.02,8.35,9.22v21.31h-13.61v-23.04c0-3.6-2.52-4.03-3.89-4.1v27.15h-13.61V11.38ZM356.98,32.19v-10.87c0-3.74-1.37-4.18-2.66-4.25h-1.22v21.96h1.66c2.09,0,2.23-2.02,2.23-6.84Z"/>
  </g>
</svg>